<?xml version="1.0" encoding="utf-8"?>
<!-- Generator: Adobe Illustrator 25.2.1, SVG Export Plug-In . SVG Version: 6.00 Build 0)  -->
<svg version="1.1" id="Capa_1" xmlns="http://www.w3.org/2000/svg" xmlns:xlink="http://www.w3.org/1999/xlink" x="0px" y="0px"
	 viewBox="0 0 850.39 850.39" style="enable-background:new 0 0 850.39 850.39;" xml:space="preserve">
<style type="text/css">
	.st0{fill:#FFFFFF;}
	.st1{fill:#1D1D1B;}
	.st2{fill:#80A5D7;}
	.st3{fill-rule:evenodd;clip-rule:evenodd;fill:#FFFFFF;}
	.st4{fill-rule:evenodd;clip-rule:evenodd;fill:#1D1D1B;}
</style>
<g>
	<g>
		<path class="st1" d="M603.26,739.25H247.15c-73.76,0-133.76-58.63-133.76-130.71V241.84c0-72.06,60-130.7,133.76-130.7h356.11
			c73.75,0,133.75,58.63,133.75,130.7v366.71C737.01,680.62,677.01,739.25,603.26,739.25z M247.15,164.98
			c-44.07,0-79.93,34.48-79.93,76.86v366.71c0,42.39,35.85,76.86,79.93,76.86h356.11c44.06,0,79.91-34.47,79.91-76.86V241.84
			c0-42.38-35.85-76.86-79.91-76.86H247.15z"/>
	</g>
	<path class="st1" d="M515.97,449.58l10.83-70.59h-67.73v-45.81c0-19.31,9.46-38.14,39.8-38.14h30.8v-60.1
		c0,0-27.95-4.77-54.67-4.77c-55.78,0-92.24,33.81-92.24,95.02v53.8h-62.01v70.59h62.01v170.65h76.32V449.58H515.97z"/>
</g>
</svg>
