<?xml version="1.0" encoding="utf-8"?>
<!-- Generator: Adobe Illustrator 25.2.1, SVG Export Plug-In . SVG Version: 6.00 Build 0)  -->
<svg version="1.1" id="Capa_1" xmlns="http://www.w3.org/2000/svg" xmlns:xlink="http://www.w3.org/1999/xlink" x="0px" y="0px"
	 viewBox="0 0 850.39 850.39" style="enable-background:new 0 0 850.39 850.39;" xml:space="preserve">
<style type="text/css">
	.st0{fill:#FFFFFF;}
	.st1{fill:#1D1D1B;}
	.st2{fill:#80A5D7;}
	.st3{fill-rule:evenodd;clip-rule:evenodd;fill:#FFFFFF;}
	.st4{fill-rule:evenodd;clip-rule:evenodd;fill:#1D1D1B;}
</style>
<g>
	<g>
		<g>
			<path class="st1" d="M603.26,739.25H247.15c-73.76,0-133.76-58.63-133.76-130.71V241.84c0-72.06,60-130.7,133.76-130.7h356.11
				c73.75,0,133.75,58.63,133.75,130.7v366.71C737.01,680.62,677.01,739.25,603.26,739.25z M247.15,164.98
				c-44.07,0-79.93,34.48-79.93,76.86v366.71c0,42.39,35.85,76.86,79.93,76.86h356.11c44.06,0,79.91-34.47,79.91-76.86V241.84
				c0-42.38-35.85-76.86-79.91-76.86H247.15z"/>
		</g>
	</g>
	<g>
		<g>
			<path class="st1" d="M425.2,588.22c-89.87,0-163.01-73.13-163.01-163.02c0-89.9,73.14-163.02,163.01-163.02
				c89.9,0,163.03,73.13,163.03,163.02C588.22,515.09,515.1,588.22,425.2,588.22z M425.2,316.01
				c-60.21,0-109.18,48.98-109.18,109.19c0,60.2,48.96,109.18,109.18,109.18c60.21,0,109.19-48.98,109.19-109.18
				C534.39,364.99,485.41,316.01,425.2,316.01z"/>
		</g>
	</g>
	<g>
		<path class="st1" d="M638.3,253.97c0,21.06-17.06,38.14-38.13,38.14c-21.06,0-38.12-17.07-38.12-38.14
			c0-21.06,17.06-38.13,38.12-38.13C621.24,215.84,638.3,232.91,638.3,253.97z"/>
	</g>
</g>
</svg>
