<?xml version="1.0" encoding="utf-8"?>
<!-- Generator: Adobe Illustrator 25.2.1, SVG Export Plug-In . SVG Version: 6.00 Build 0)  -->
<svg version="1.1" id="Capa_1" xmlns="http://www.w3.org/2000/svg" xmlns:xlink="http://www.w3.org/1999/xlink" x="0px" y="0px"
	 viewBox="0 0 850.39 850.39" style="enable-background:new 0 0 850.39 850.39;" xml:space="preserve">
<style type="text/css">
	.st0{fill:#FFFFFF;}
	.st1{fill:#1D1D1B;}
	.st2{fill:#80A5D7;}
	.st3{fill-rule:evenodd;clip-rule:evenodd;fill:#FFFFFF;}
	.st4{fill-rule:evenodd;clip-rule:evenodd;fill:#1D1D1B;}
</style>
<g>
	<g>
		<path class="st1" d="M428.51,111.69c-170.1,0-308.5,138.39-308.5,308.51c0,55.96,14.84,109.89,43.12,157.4L113.39,738.7
			l170.25-46.1c44.45,23.67,94.08,36.09,144.87,36.09c170.1,0,308.5-138.39,308.5-308.5C737.01,250.08,598.61,111.69,428.51,111.69z
			 M428.51,678.33c-50.67,0-97.92-14.61-137.8-39.83l-3.65,1l-98.57,26.68l29.73-96.26c-30.12-42.23-47.84-93.92-47.84-149.73
			c0-142.57,115.56-258.15,258.13-258.15c142.56,0,258.14,115.58,258.14,258.15C686.65,562.75,571.07,678.33,428.51,678.33z"/>
	</g>
	<g>
		<path class="st1" d="M377.61,344.19c0,0,9.1,13.93,0,25.19C368.5,380.63,361,389.2,361,389.2s-8.04,5.9,0,17.67
			c8.04,11.8,41.26,62.7,98.58,85.2c0,0,17.67,7.5,25.19-9.64l18.2-23.57c0,0,4.29-5.9,18.23,0c13.93,5.89,57.86,27.31,57.86,27.31
			s8.04,2.68,6.44,14.46c-1.61,11.8-5.89,57.33-69.12,62.16c0,0-61.08,2.15-129.66-50.9c-42.86-33.15-73.2-74.45-89.92-103.27
			c-1.12-1.92-2.17-3.78-3.16-5.58c-8.71-17.59-15.14-36.87-14.27-55.68c0-2.15,0.07-4.39,0.22-6.69
			c1.39-20.57,9.76-45.09,40.7-59.15c0,0,25.18-3.74,29.47,0L377.61,344.19z"/>
	</g>
</g>
</svg>
